<?xml version="1.0" encoding="UTF-8" standalone="no"?>
<svg
   xmlns:dc="http://purl.org/dc/elements/1.1/"
   xmlns:cc="http://creativecommons.org/ns#"
   xmlns:rdf="http://www.w3.org/1999/02/22-rdf-syntax-ns#"
   xmlns:svg="http://www.w3.org/2000/svg"
   xmlns="http://www.w3.org/2000/svg"
   xmlns:sodipodi="http://sodipodi.sourceforge.net/DTD/sodipodi-0.dtd"
   xmlns:inkscape="http://www.inkscape.org/namespaces/inkscape"
   width="128"
   height="128"
   version="1.1"
   id="svg4"
   sodipodi:docname="cancel.svg"
   inkscape:version="1.0.1 (3bc2e813f5, 2020-09-07, custom)">
  <metadata
     id="metadata10">
    <rdf:RDF>
      <cc:Work
         rdf:about="">
        <dc:format>image/svg+xml</dc:format>
        <dc:type
           rdf:resource="http://purl.org/dc/dcmitype/StillImage" />
        <dc:title></dc:title>
      </cc:Work>
    </rdf:RDF>
  </metadata>
  <defs
     id="defs8" />
  <sodipodi:namedview
     pagecolor="#ffffff"
     bordercolor="#666666"
     borderopacity="1"
     objecttolerance="10"
     gridtolerance="10"
     guidetolerance="10"
     inkscape:pageopacity="0"
     inkscape:pageshadow="2"
     inkscape:window-width="928"
     inkscape:window-height="1022"
     id="namedview6"
     showgrid="false"
     inkscape:zoom="3.0899093"
     inkscape:cx="53.823162"
     inkscape:cy="40.431518"
     inkscape:window-x="2884"
     inkscape:window-y="38"
     inkscape:window-maximized="0"
     inkscape:current-layer="svg4" />
  <path
     d="M 19.845453,2.5486448 C 12.85042,2.4951648 6.4859945,6.7089638 3.8387805,13.186846 c -2.647209,6.477879 -1.019179,13.901889 3.985065,18.74983 L 40.10286,64.183724 7.8238455,96.430775 c -6.689505,6.696655 -6.689505,17.638235 0,24.334885 6.6894985,6.69665 17.5529685,6.69665 24.2424685,0 L 64.34533,88.518611 96.557926,120.76566 c 4.305174,4.43281 10.582054,6.11242 16.538014,4.52124 5.96606,-1.59387 10.75187,-6.27433 12.28728,-12.30043 1.52886,-6.00032 -0.31016,-12.29841 -4.78208,-16.555695 L 88.388546,64.183724 120.60114,31.936676 c 5.05214,-4.890855 6.70927,-12.427956 3.98507,-18.949296 -2.7242,-6.5213342 -9.25623,-10.6039602 -16.27235,-10.4387352 -4.46403,0.176476 -8.687882,2.068255 -11.755934,5.3191 L 64.34533,40.114793 32.066314,7.8012588 c -3.19734,-3.380831 -7.570345,-5.217678 -12.220861,-5.252614 z"
     fill="#62c5df"
     id="path2"
     style="stroke-width:2.80298" />
</svg>
