<?xml version="1.0" encoding="UTF-8" standalone="no"?>
<svg
   xmlns:dc="http://purl.org/dc/elements/1.1/"
   xmlns:cc="http://creativecommons.org/ns#"
   xmlns:rdf="http://www.w3.org/1999/02/22-rdf-syntax-ns#"
   xmlns:svg="http://www.w3.org/2000/svg"
   xmlns="http://www.w3.org/2000/svg"
   xmlns:sodipodi="http://sodipodi.sourceforge.net/DTD/sodipodi-0.dtd"
   xmlns:inkscape="http://www.inkscape.org/namespaces/inkscape"
   height="128"
   width="128"
   version="1.1"
   id="svg8"
   sodipodi:docname="hibernate.svg"
   inkscape:version="1.0.1 (3bc2e813f5, 2020-09-07, custom)">
  <metadata
     id="metadata14">
    <rdf:RDF>
      <cc:Work
         rdf:about="">
        <dc:format>image/svg+xml</dc:format>
        <dc:type
           rdf:resource="http://purl.org/dc/dcmitype/StillImage" />
        <dc:title />
      </cc:Work>
    </rdf:RDF>
  </metadata>
  <defs
     id="defs12" />
  <sodipodi:namedview
     pagecolor="#ffffff"
     bordercolor="#666666"
     borderopacity="1"
     objecttolerance="10"
     gridtolerance="10"
     guidetolerance="10"
     inkscape:pageopacity="0"
     inkscape:pageshadow="2"
     inkscape:window-width="1870"
     inkscape:window-height="1018"
     id="namedview10"
     showgrid="false"
     inkscape:zoom="4"
     inkscape:cx="18.373698"
     inkscape:cy="58.272638"
     inkscape:window-x="1940"
     inkscape:window-y="40"
     inkscape:window-maximized="0"
     inkscape:current-layer="svg8"
     inkscape:document-rotation="0"
     inkscape:snap-page="false" />
  <circle
     style="mix-blend-mode:normal;fill:#cccccc;fill-rule:evenodd;stroke-width:0.856496;opacity:1;fill-opacity:0.00000013"
     id="path67"
     cx="63.78167"
     cy="64.55938"
     r="63.458664" />
  <g
     transform="matrix(0.3547245,0,0,0.3547245,-26.943181,-27.076238)"
     fill="#62c5df"
     fill-rule="evenodd"
     id="g6">
    <path
       d="m 256,106 c -82.84,0 -150,67.16 -150,150 0,82.84 67.16,150 150,150 82.84,0 150,-67.16 150,-150 0,-82.84 -67.16,-150 -150,-150 m 0,50.15 c 55.14,0 99.84,44.707 99.84,99.85 0,55.14 -44.703,99.85 -99.84,99.85 -55.14,0 -99.84,-44.707 -99.84,-99.85 0,-55.14 44.703,-99.85 99.84,-99.85"
       id="path2" />
    <rect
       height="130.13"
       rx="25"
       width="50"
       x="231"
       y="190.94"
       id="rect4" />
  </g>
</svg>
