<?xml version="1.0" encoding="UTF-8" standalone="no"?>
<svg
   xmlns:dc="http://purl.org/dc/elements/1.1/"
   xmlns:cc="http://creativecommons.org/ns#"
   xmlns:rdf="http://www.w3.org/1999/02/22-rdf-syntax-ns#"
   xmlns:svg="http://www.w3.org/2000/svg"
   xmlns="http://www.w3.org/2000/svg"
   xmlns:sodipodi="http://sodipodi.sourceforge.net/DTD/sodipodi-0.dtd"
   xmlns:inkscape="http://www.inkscape.org/namespaces/inkscape"
   width="128"
   height="128"
   version="1.1"
   id="svg4"
   sodipodi:docname="lock.svg"
   inkscape:version="1.0.1 (3bc2e813f5, 2020-09-07, custom)">
  <metadata
     id="metadata10">
    <rdf:RDF>
      <cc:Work
         rdf:about="">
        <dc:format>image/svg+xml</dc:format>
        <dc:type
           rdf:resource="http://purl.org/dc/dcmitype/StillImage" />
        <dc:title></dc:title>
      </cc:Work>
    </rdf:RDF>
  </metadata>
  <defs
     id="defs8" />
  <sodipodi:namedview
     pagecolor="#ffffff"
     bordercolor="#666666"
     borderopacity="1"
     objecttolerance="10"
     gridtolerance="10"
     guidetolerance="10"
     inkscape:pageopacity="0"
     inkscape:pageshadow="2"
     inkscape:window-width="928"
     inkscape:window-height="1022"
     id="namedview6"
     showgrid="false"
     inkscape:zoom="4.3697917"
     inkscape:cx="64.274717"
     inkscape:cy="43.257112"
     inkscape:window-x="2884"
     inkscape:window-y="38"
     inkscape:window-maximized="0"
     inkscape:current-layer="svg4" />
  <path
     d="m 62.344406,1.4486785 c -21.916053,0 -37.570378,13.0679295 -37.570378,34.4395125 v 18.785187 h -6.261729 c -6.26173,0 -9.3925945,3.130866 -9.3925945,9.392595 v 53.224707 c 0,3.06926 3.1308645,9.39258 9.3925945,9.39258 h 91.997371 c 5.05943,-0.0296 8.1903,-6.32332 8.1903,-9.39258 V 64.065973 c 0,-6.261729 -3.13087,-9.422195 -9.3926,-9.422195 l -6.26172,0.0296 V 35.888191 c 0,-21.916054 -15.654326,-34.4395125 -37.57038,-34.4395125 z m 0,15.6543235 h 3.130864 c 21.916054,0 21.916054,18.785189 21.916054,25.046918 V 54.673378 H 40.428353 V 42.14992 c 0,-6.261729 0,-25.046918 21.916053,-25.046918 z"
     fill="#62c5df"
     id="path2"
     style="stroke-width:2.84624" />
</svg>
