<?xml version="1.0" encoding="UTF-8" standalone="no"?>
<svg
   xmlns:dc="http://purl.org/dc/elements/1.1/"
   xmlns:cc="http://creativecommons.org/ns#"
   xmlns:rdf="http://www.w3.org/1999/02/22-rdf-syntax-ns#"
   xmlns:svg="http://www.w3.org/2000/svg"
   xmlns="http://www.w3.org/2000/svg"
   xmlns:sodipodi="http://sodipodi.sourceforge.net/DTD/sodipodi-0.dtd"
   xmlns:inkscape="http://www.inkscape.org/namespaces/inkscape"
   width="128"
   height="128"
   version="1.1"
   id="svg4"
   sodipodi:docname="logout.svg"
   inkscape:version="1.0.1 (3bc2e813f5, 2020-09-07, custom)">
  <metadata
     id="metadata10">
    <rdf:RDF>
      <cc:Work
         rdf:about="">
        <dc:format>image/svg+xml</dc:format>
        <dc:type
           rdf:resource="http://purl.org/dc/dcmitype/StillImage" />
        <dc:title></dc:title>
      </cc:Work>
    </rdf:RDF>
  </metadata>
  <defs
     id="defs8" />
  <sodipodi:namedview
     pagecolor="#ffffff"
     bordercolor="#666666"
     borderopacity="1"
     objecttolerance="10"
     gridtolerance="10"
     guidetolerance="10"
     inkscape:pageopacity="0"
     inkscape:pageshadow="2"
     inkscape:window-width="928"
     inkscape:window-height="1022"
     id="namedview6"
     showgrid="false"
     inkscape:zoom="4.3697917"
     inkscape:cx="51.63774"
     inkscape:cy="41.152334"
     inkscape:window-x="2884"
     inkscape:window-y="38"
     inkscape:window-maximized="0"
     inkscape:current-layer="svg4" />
  <path
     d="m 51.296967,16.44208 c -27.333548,0 -49.5711776,22.237631 -49.5711776,49.571177 0,27.333546 22.2376326,49.571173 49.5711776,49.571173 19.517162,0 37.293636,-11.54959 45.264683,-29.432885 0.137804,-0.30734 0.08948,-0.677886 -0.09296,-0.960442 -0.183401,-0.280586 -0.500423,-0.433745 -0.836509,-0.433745 H 77.352806 c -0.310314,-3e-6 -0.618153,0.124918 -0.805532,0.371782 -5.992166,7.885785 -15.430267,12.609669 -25.250317,12.609669 -17.493669,0 -31.725554,-14.231888 -31.725554,-31.725552 -1e-6,-17.493667 14.231887,-31.725555 31.725554,-31.725555 10.246361,0 19.937528,5.017102 25.90094,13.446184 0.186386,0.262729 0.483319,0.433745 0.80553,0.433745 h 18.031519 c 0.332123,4e-6 0.621129,-0.156148 0.805534,-0.433745 0.183405,-0.276612 0.222806,-0.62311 0.09294,-0.929461 C 89.250891,28.652454 70.91327,16.44208 51.296967,16.44208 Z m 53.536863,28.751283 c -0.0969,0.0088 -0.18564,0.02384 -0.27883,0.06195 -0.37178,0.152686 -0.61963,0.527932 -0.61963,0.929457 0,4e-6 0,9.239079 0,10.90566 -1.90255,0 -35.691247,0 -35.691247,0 -0.548255,0 -0.991421,0.444158 -0.991421,0.991425 v 16.761253 c 0,0.548254 0.443166,0.991423 0.991421,0.991423 3e-6,-2e-6 33.788697,0 35.691247,0 0,1.66658 0,10.905658 0,10.905658 0,0.394586 0.2248,0.741835 0.58866,0.898478 0.36384,0.156632 0.79585,0.08478 1.08437,-0.185903 l 20.72694,-19.518649 c 0.19332,-0.183405 0.30586,-0.444902 0.30981,-0.712587 0.004,-0.266703 -0.0915,-0.522232 -0.27881,-0.712587 L 105.63937,45.503184 c -0.21192,-0.214152 -0.51485,-0.336312 -0.80554,-0.309821 z"
     fill="#62c5df"
     id="path2"
     style="stroke-width:2.83908" />
</svg>
