<?xml version="1.0" encoding="UTF-8" standalone="no"?>
<svg
   xmlns:dc="http://purl.org/dc/elements/1.1/"
   xmlns:cc="http://creativecommons.org/ns#"
   xmlns:rdf="http://www.w3.org/1999/02/22-rdf-syntax-ns#"
   xmlns:svg="http://www.w3.org/2000/svg"
   xmlns="http://www.w3.org/2000/svg"
   xmlns:sodipodi="http://sodipodi.sourceforge.net/DTD/sodipodi-0.dtd"
   xmlns:inkscape="http://www.inkscape.org/namespaces/inkscape"
   height="128"
   width="128"
   version="1.1"
   id="svg8"
   sodipodi:docname="suspend.svg"
   inkscape:version="1.0.1 (3bc2e813f5, 2020-09-07, custom)">
  <metadata
     id="metadata14">
    <rdf:RDF>
      <cc:Work
         rdf:about="">
        <dc:format>image/svg+xml</dc:format>
        <dc:type
           rdf:resource="http://purl.org/dc/dcmitype/StillImage" />
        <dc:title></dc:title>
      </cc:Work>
    </rdf:RDF>
  </metadata>
  <defs
     id="defs12" />
  <sodipodi:namedview
     pagecolor="#ffffff"
     bordercolor="#666666"
     borderopacity="1"
     objecttolerance="10"
     gridtolerance="10"
     guidetolerance="10"
     inkscape:pageopacity="0"
     inkscape:pageshadow="2"
     inkscape:window-width="928"
     inkscape:window-height="1022"
     id="namedview10"
     showgrid="false"
     inkscape:zoom="2"
     inkscape:cx="37.775084"
     inkscape:cy="63.747386"
     inkscape:window-x="2884"
     inkscape:window-y="38"
     inkscape:window-maximized="0"
     inkscape:current-layer="svg8" />
  <path
     d="m 63.866292,1.6004869 c -34.313846,0 -62.1327481,27.8189021 -62.1327481,62.1327481 0,34.313846 27.8189021,62.132745 62.1327481,62.132745 34.313846,0 62.132748,-27.818899 62.132748,-62.132745 0,-34.313846 -27.818902,-62.1327481 -62.132748,-62.1327481 m 0,20.7730491 c 22.839998,0 41.355558,18.518458 41.355558,41.359699 0,22.839998 -18.516803,41.359695 -41.355558,41.359695 -22.839998,0 -41.355557,-18.518454 -41.355557,-41.359695 0,-22.839998 18.516801,-41.359699 41.355557,-41.359699"
     id="path2"
     style="fill:#62c5df;fill-rule:evenodd;stroke-width:0.414218" />
  <rect
     height="53.902233"
     rx="10.355458"
     width="20.710917"
     x="53.379848"
     y="-90.817406"
     id="rect4"
     style="fill:#62c5df;fill-rule:evenodd;stroke-width:0.414218"
     transform="rotate(90)" />
</svg>
