<?xml version="1.0" encoding="UTF-8" standalone="no"?>
<svg
   xmlns:dc="http://purl.org/dc/elements/1.1/"
   xmlns:cc="http://creativecommons.org/ns#"
   xmlns:rdf="http://www.w3.org/1999/02/22-rdf-syntax-ns#"
   xmlns:svg="http://www.w3.org/2000/svg"
   xmlns="http://www.w3.org/2000/svg"
   xmlns:xlink="http://www.w3.org/1999/xlink"
   xmlns:sodipodi="http://sodipodi.sourceforge.net/DTD/sodipodi-0.dtd"
   xmlns:inkscape="http://www.inkscape.org/namespaces/inkscape"
   viewBox="0 0 128 128"
   version="1.1"
   id="svg7"
   sodipodi:docname="switch_blur.svg"
   width="128"
   height="128"
   inkscape:version="1.0.1 (3bc2e813f5, 2020-09-07, custom)">
  <metadata
     id="metadata13">
    <rdf:RDF>
      <cc:Work
         rdf:about="">
        <dc:format>image/svg+xml</dc:format>
        <dc:type
           rdf:resource="http://purl.org/dc/dcmitype/StillImage" />
        <dc:title />
      </cc:Work>
    </rdf:RDF>
  </metadata>
  <defs
     id="defs11">
    <filter
       inkscape:collect="always"
       style="color-interpolation-filters:sRGB"
       id="filter1954"
       x="-0.62035322"
       width="2.2407064"
       y="-0.62035322"
       height="2.2407064">
      <feGaussianBlur
         inkscape:collect="always"
         stdDeviation="38.260734"
         id="feGaussianBlur1956" />
    </filter>
  </defs>
  <sodipodi:namedview
     pagecolor="#ffffff"
     bordercolor="#666666"
     borderopacity="1"
     objecttolerance="10"
     gridtolerance="10"
     guidetolerance="10"
     inkscape:pageopacity="0"
     inkscape:pageshadow="2"
     inkscape:window-width="925"
     inkscape:window-height="1018"
     id="namedview9"
     showgrid="false"
     inkscape:zoom="3.4877765"
     inkscape:cx="72.983802"
     inkscape:cy="53.711048"
     inkscape:window-x="2885"
     inkscape:window-y="40"
     inkscape:window-maximized="0"
     inkscape:current-layer="svg7"
     inkscape:document-rotation="0" />
  <g
     id="g18"
     transform="matrix(0.29043964,0,0,0.29043964,-10.400199,-8.9109939)">
    <path
       id="a"
       d="m 300.43966,41 c -0.356,0.019 -0.74,0.105 -1.125,0.156 -2.13,0.277 -4.404,1.243 -5.094,2.188 -0.952,1.302 -1.281,8.393 -1.281,29.375 0,10.1 -0.023,19.485 -0.063,28.563 h -192.69 c -20.731002,0 -37.409997,16.707 -37.409997,37.438 v 8.313 c 0,20.731 16.674995,37.438 37.409997,37.438 h 192.34 c 0.05,9.285 0.168,17.97 0.406,26.19 0,22.897 0.323,30.405 1.281,31.719 0.69,0.945 3.061,1.952 5.281,2.25 3.36,0.451 4.977,0.04 9.719,-2.656 46.08,-30.881 81.34,-54.41 131.03,-87.62 6.992,-3.929 8.969,-6.481 8.969,-11.5 0,-5.962 -1.158,-7.03 -20.969,-19.5 l -119.41,-79.66 c -3.923,-2.109 -5.91,-2.792 -8.406,-2.656 v -0.031"
       fill="#62c5df" />
    <path
       d="m 210.21966,259.77 c 0.356,0.019 0.74,0.105 1.125,0.156 2.13,0.277 4.404,1.243 5.094,2.188 0.952,1.302 1.281,8.393 1.281,29.375 0,10.1 0.023,19.485 0.063,28.563 h 192.69 c 20.731,0 37.41,16.707 37.41,37.438 v 8.313 c 0,20.731 -16.675,37.438 -37.41,37.438 h -192.34 c -0.05,9.285 -0.168,17.97 -0.406,26.19 0,22.897 -0.323,30.405 -1.281,31.719 -0.69,0.945 -3.061,1.952 -5.281,2.25 -3.36,0.451 -4.977,0.039 -9.719,-2.656 -46.08,-30.881 -81.34,-54.41 -131.029997,-87.62 -6.992,-3.929 -8.969,-6.481 -8.969,-11.5 0,-5.962 1.158,-7.03 20.968995,-19.5 l 119.410002,-79.66 c 3.923,-2.109 5.91,-2.792 8.406,-2.656 v -0.031"
       fill="#62c5df"
       id="path3" />
    <use
       height="1"
       width="1"
       xlink:href="#a"
       id="use5"
       x="0"
       y="0" />
  </g>
  <circle
     style="opacity:1;fill:#cccccc;fill-opacity:1;filter:url(#filter1954)"
     id="path968"
     cx="69.565567"
     cy="56.774803"
     r="74.010872" />
</svg>
